# xmcd CD database file
#
# Track frame offsets:
#	150
#	13413
#	32284
#	50309
#	75255
#	93088
#	106742
#	125094
#	141257
#	158662
#	180120
#	190646
#	207407
#	227424
#	245522
#	259552
#
# Disc length: 3726 seconds
#
# Revision: 0
# Processed by: cddbd v1.5.1PL0 Copyright (c) Steve Scherf et al.
# Submitted via: CdAid (MTCDDB.DLL V2003.07.15)
#
DISCID=b80e8c10
DTITLE=Assorted Artists - Essential San Diego Blues   Vol. 1
DYEAR=2002
DGENRE=Blues
TTITLE0=The Boogie An The Blues - Sue Palmer
TTITLE1=# 9 Train - Dig Daddy And The Money Shakers
TTITLE2=Born In Chicago - Billy Watson
TTITLE3=Girl Stop Teasing Me - Bill Magee
TTITLE4=Sugar Mama Blues - Nathan James
TTITLE5=Strollin With Bone - Blue Largo
TTITLE6=My Soul To Keep - The Big Mo Band
TTITLE7=Jump For Fro - Jonny Viau
TTITLE8=Wha A Day - Blue Largo
TTITLE9=I Want To Be - Billy Watson
TTITLE10=Liquor Store - Nathan James
TTITLE11=Beehive - Sur Palmer
TTITLE12=Comin' Home - Bill Magee
TTITLE13=Lottie Mo - The Big Mo Band
TTITLE14=I May Never - Big Daddy And The Money Shakers
TTITLE15=Turning Point - Jonny Viau
EXTD=ID3G:   0 YEAR: 2002
EXTT0=
EXTT1=
EXTT2=
EXTT3=
EXTT4=
EXTT5=
EXTT6=
EXTT7=
EXTT8=
EXTT9=
EXTT10=
EXTT11=
EXTT12=
EXTT13=
EXTT14=
EXTT15=
PLAYORDER=
